# xmcd
#
# Track frame offsets:
#	150
#	28845
#	67831
#	91978
#	126800
#	155140
#	202890
#	205038
#	231359
#	253544
#	282215
#
# Disc length: 4106 seconds
#
# Revision: 0
# Processed by: cddbd v1.4b42PL1 Copyright (c) Steve Scherf et al.
# Submitted via: audiograbber 1.80
#
DISCID=9510080b
DTITLE=Dino Baptiste - Two Timing Lover Boy
DYEAR=1900
DGENRE=
TTITLE0=I'm A Boogie Man
TTITLE1=Baby Let Me Funk Your Blues
TTITLE2=Whole Lotta Lovin'
TTITLE3=Love Don't Live Here Anymore
TTITLE4=Can't You See? (I'm In Love With You)
TTITLE5=Two Timing Lover Boy
TTITLE6=Somethin' For The Head (Intro)
TTITLE7=Funky With Your Hunky (Fatboy)
TTITLE8=Boogie Woogie Boogie
TTITLE9=Ask Me To Explain
TTITLE10=Silver Haired Lady
EXTD=
EXTT0=
EXTT1=
EXTT2=
EXTT3=
EXTT4=
EXTT5=
EXTT6=
EXTT7=
EXTT8=
EXTT9=
EXTT10=
PLAYORDER=
